<?xml version="1.0" encoding="UTF-8" standalone="no"?>
<!-- Created with Inkscape (http://www.inkscape.org/) -->

<svg
   xmlns:dc="http://purl.org/dc/elements/1.1/"
   xmlns:cc="http://creativecommons.org/ns#"
   xmlns:rdf="http://www.w3.org/1999/02/22-rdf-syntax-ns#"
   xmlns:svg="http://www.w3.org/2000/svg"
   xmlns="http://www.w3.org/2000/svg"
   xmlns:sodipodi="http://sodipodi.sourceforge.net/DTD/sodipodi-0.dtd"
   xmlns:inkscape="http://www.inkscape.org/namespaces/inkscape"
   width="3996.2598"
   height="188.57143"
   id="svg2"
   version="1.1"
   inkscape:version="0.48.4 r9939"
   sodipodi:docname="header_expanded.svg"
   inkscape:export-filename="/home/nmayhall/Dropbox/Research/websites/site3/images/header_expanded.png"
   inkscape:export-xdpi="90"
   inkscape:export-ydpi="90">
  <defs
     id="defs4" />
  <sodipodi:namedview
     id="base"
     pagecolor="#ffffff"
     bordercolor="#666666"
     borderopacity="1.0"
     inkscape:pageopacity="0.0"
     inkscape:pageshadow="2"
     inkscape:zoom="1.4142136"
     inkscape:cx="1216.7123"
     inkscape:cy="-94.04338"
     inkscape:document-units="px"
     inkscape:current-layer="layer1"
     showgrid="false"
     fit-margin-top="0"
     fit-margin-left="0"
     fit-margin-right="0"
     fit-margin-bottom="0"
     inkscape:window-width="2495"
     inkscape:window-height="1416"
     inkscape:window-x="65"
     inkscape:window-y="24"
     inkscape:window-maximized="1" />
  <metadata
     id="metadata7">
    <rdf:RDF>
      <cc:Work
         rdf:about="">
        <dc:format>image/svg+xml</dc:format>
        <dc:type
           rdf:resource="http://purl.org/dc/dcmitype/StillImage" />
        <dc:title></dc:title>
      </cc:Work>
    </rdf:RDF>
  </metadata>
  <g
     inkscape:label="Layer 1"
     inkscape:groupmode="layer"
     id="layer1"
     transform="translate(776.66858,-292.36218)">
    <path
       style="fill:#000000;fill-opacity:1;stroke:none"
       d="M 0 0 L 0 188.5625 L 1331.4062 188.5625 L 1331.4062 0 L 0 0 z M 1029.0625 22.40625 L 1029.0625 63.625 C 1031.7489 62.59182 1034.5973 61.829211 1037.5938 61.3125 C 1040.6935 60.692626 1043.7535 60.375082 1046.75 60.375 C 1053.1562 60.375082 1058.4823 61.296462 1062.7188 63.15625 C 1066.9551 64.912871 1070.3014 67.443642 1072.7812 70.75 C 1075.3643 73.953176 1077.1854 77.828719 1078.2188 82.375 C 1079.2519 86.921402 1079.7499 91.93002 1079.75 97.40625 L 1079.75 142.65625 L 1065.3438 142.65625 L 1065.3438 100.5 C 1065.3437 95.540397 1064.9732 91.325637 1064.25 87.8125 C 1063.63 84.299473 1062.5498 81.451158 1061 79.28125 C 1059.4501 77.111469 1057.3956 75.555002 1054.8125 74.625 C 1052.2293 73.591809 1049.0105 73.09382 1045.1875 73.09375 C 1043.6376 73.09382 1042.0282 73.199667 1040.375 73.40625 C 1038.7217 73.612971 1037.1436 73.846341 1035.5938 74.15625 C 1034.1472 74.36297 1032.8024 74.62759 1031.5625 74.9375 C 1030.4259 75.247546 1029.5791 75.512165 1029.0625 75.71875 L 1029.0625 142.65625 L 1014.6562 142.65625 L 1014.6562 24.875 L 1029.0625 22.40625 z M 1227.9688 22.40625 L 1227.9688 119.28125 C 1227.9687 121.65777 1228.1804 123.60638 1228.5938 125.15625 C 1229.007 126.70616 1229.695 127.94508 1230.625 128.875 C 1231.5549 129.80495 1232.7938 130.54588 1234.3438 131.0625 C 1235.8936 131.47582 1237.7893 131.81503 1240.0625 132.125 L 1238.0625 144.21875 C 1229.1764 144.0121 1222.876 142.11641 1219.1562 138.5 C 1215.4365 134.8836 1213.5625 129.23989 1213.5625 121.59375 L 1213.5625 24.875 L 1227.9688 22.40625 z M 1285.375 22.40625 L 1285.375 119.28125 C 1285.375 121.65777 1285.5554 123.60638 1285.9688 125.15625 C 1286.382 126.70616 1287.07 127.94508 1288 128.875 C 1288.9299 129.80495 1290.1688 130.54588 1291.7188 131.0625 C 1293.2686 131.47582 1295.1643 131.81503 1297.4375 132.125 L 1295.4375 144.21875 C 1286.5514 144.0121 1280.251 142.11641 1276.5312 138.5 C 1272.8115 134.8836 1270.9375 129.23989 1270.9375 121.59375 L 1270.9375 24.875 L 1285.375 22.40625 z M 685.25 35.25 L 698.4375 35.25 C 701.22727 39.796449 704.20311 45.175534 707.40625 51.375 C 710.60931 57.574648 713.8281 64.086809 717.03125 70.90625 C 720.2343 77.622508 723.31599 84.399289 726.3125 91.21875 C 729.30889 97.934988 732.05136 104.07668 734.53125 109.65625 C 737.01101 104.07668 739.75347 97.934988 742.75 91.21875 C 745.74638 84.399289 748.85931 77.622508 752.0625 70.90625 C 755.26552 64.086809 758.45305 57.574648 761.65625 51.375 C 764.85926 45.175534 767.86635 39.796449 770.65625 35.25 L 783.8125 35.25 C 787.32547 69.864299 789.96208 105.66556 791.71875 142.65625 L 777 142.65625 C 776.48326 128.19062 775.87942 113.9057 775.15625 99.75 C 774.43286 85.491062 773.48023 72.255044 772.34375 60.0625 C 771.31039 61.819124 769.91269 64.349895 768.15625 67.65625 C 766.50293 70.962755 764.7131 74.73245 762.75 78.96875 C 760.78671 83.101852 758.64808 87.559557 756.375 92.3125 C 754.20507 96.962218 752.15061 101.49452 750.1875 105.9375 C 748.22422 110.38055 746.38146 114.52071 744.625 118.34375 C 742.97171 122.16683 741.62694 125.30144 740.59375 127.78125 L 728.5 127.78125 C 727.46668 125.30144 726.06898 122.16683 724.3125 118.34375 C 722.65923 114.52071 720.83814 110.38055 718.875 105.9375 C 716.91176 101.49452 714.80438 96.962218 712.53125 92.3125 C 710.36136 87.559557 708.3069 83.101852 706.34375 78.96875 C 704.38052 74.73245 702.50651 70.962755 700.75 67.65625 C 699.09675 64.349895 697.75198 61.819124 696.71875 60.0625 C 695.58213 72.255044 694.66075 85.491062 693.9375 99.75 C 693.21419 113.9057 692.5791 128.19062 692.0625 142.65625 L 677.34375 142.65625 C 677.75704 133.35691 678.23336 124.02769 678.75 114.625 C 679.26662 105.11904 679.81753 95.811489 680.4375 86.71875 C 681.16077 77.522797 681.9017 68.585712 682.625 59.90625 C 683.45159 51.226953 684.32005 42.999553 685.25 35.25 z M 855.40625 60.0625 C 861.19246 60.062583 866.04231 60.825191 869.96875 62.375 C 873.99841 63.821644 877.21719 65.960273 879.59375 68.75 C 882.07351 71.436549 883.81042 74.677004 884.84375 78.5 C 885.87694 82.219798 886.40618 86.35996 886.40625 90.90625 L 886.40625 141.28125 C 885.16627 141.4879 883.39811 141.80545 881.125 142.21875 C 878.95509 142.52873 876.47724 142.81502 873.6875 143.125 C 870.89764 143.43498 867.86888 143.6996 864.5625 143.90625 C 861.35935 144.21623 858.14057 144.375 854.9375 144.375 C 850.39112 144.375 846.19803 143.89868 842.375 142.96875 C 838.55191 142.03882 835.25854 140.61945 832.46875 138.65625 C 829.67893 136.58974 827.51863 133.90019 825.96875 130.59375 C 824.41885 127.28733 823.62499 123.30594 823.625 118.65625 C 823.62499 114.21326 824.5247 110.39064 826.28125 107.1875 C 828.14111 103.98443 830.61895 101.40074 833.71875 99.4375 C 836.81851 97.47435 840.42943 96.023731 844.5625 95.09375 C 848.69551 94.163864 853.04737 93.687549 857.59375 93.6875 C 859.04027 93.687549 860.51257 93.793397 862.0625 94 C 863.61234 94.103375 865.06296 94.31507 866.40625 94.625 C 867.85276 94.8317 869.09169 95.043396 870.125 95.25 C 871.15821 95.456699 871.89914 95.615471 872.3125 95.71875 L 872.3125 91.6875 C 872.31244 89.311054 872.04783 86.991979 871.53125 84.71875 C 871.01457 82.342311 870.09319 80.256605 868.75 78.5 C 867.40671 76.640197 865.5327 75.189578 863.15625 74.15625 C 860.88303 73.019733 857.87595 72.46882 854.15625 72.46875 C 849.40322 72.46882 845.24138 72.808037 841.625 73.53125 C 838.11189 74.151275 835.47527 74.839285 833.71875 75.5625 L 832 63.625 C 833.85985 62.798471 836.97279 62.035863 841.3125 61.3125 C 845.65217 60.485974 850.34324 60.062583 855.40625 60.0625 z M 1144.0938 60.0625 C 1149.88 60.062583 1154.7298 60.825191 1158.6562 62.375 C 1162.6859 63.821644 1165.9047 65.960273 1168.2812 68.75 C 1170.761 71.436549 1172.4979 74.677004 1173.5312 78.5 C 1174.5644 82.219798 1175.0937 86.35996 1175.0938 90.90625 L 1175.0938 141.28125 C 1173.8538 141.4879 1172.0856 141.80545 1169.8125 142.21875 C 1167.6426 142.52873 1165.1647 142.81502 1162.375 143.125 C 1159.5851 143.43498 1156.5564 143.6996 1153.25 143.90625 C 1150.0468 144.21623 1146.8281 144.375 1143.625 144.375 C 1139.0786 144.375 1134.8855 143.89868 1131.0625 142.96875 C 1127.2394 142.03882 1123.946 140.61945 1121.1562 138.65625 C 1118.3664 136.58974 1116.2061 133.90019 1114.6562 130.59375 C 1113.1064 127.28733 1112.3125 123.30594 1112.3125 118.65625 C 1112.3125 114.21326 1113.2122 110.39064 1114.9688 107.1875 C 1116.8286 103.98443 1119.3065 101.40074 1122.4062 99.4375 C 1125.506 97.47435 1129.1169 96.023731 1133.25 95.09375 C 1137.383 94.163864 1141.7036 93.687549 1146.25 93.6875 C 1147.6965 93.687549 1149.2001 93.793397 1150.75 94 C 1152.2998 94.103375 1153.7505 94.31507 1155.0938 94.625 C 1156.5403 94.8317 1157.7792 95.043396 1158.8125 95.25 C 1159.8457 95.456699 1160.5866 95.615471 1161 95.71875 L 1161 91.6875 C 1160.9999 89.311054 1160.7353 86.991979 1160.2188 84.71875 C 1159.7021 82.342311 1158.7494 80.256605 1157.4062 78.5 C 1156.063 76.640197 1154.2202 75.189578 1151.8438 74.15625 C 1149.5705 73.019733 1146.5634 72.46882 1142.8438 72.46875 C 1138.0907 72.46882 1133.9289 72.808037 1130.3125 73.53125 C 1126.7994 74.151275 1124.1628 74.839285 1122.4062 75.5625 L 1120.6875 63.625 C 1122.5474 62.798471 1125.6603 62.035863 1130 61.3125 C 1134.3397 60.485974 1139.0307 60.062583 1144.0938 60.0625 z M 912.84375 62.0625 L 928.34375 62.0625 C 929.48032 66.712248 930.82509 71.752116 932.375 77.125 C 934.02819 82.498015 935.84928 88.004622 937.8125 93.6875 C 939.77567 99.370476 941.88305 105.0671 944.15625 110.75 C 946.42939 116.43296 948.80139 121.91789 951.28125 127.1875 C 955.2076 116.33829 958.63807 105.58012 961.53125 94.9375 C 964.42433 84.294975 967.16679 73.325109 969.75 62.0625 L 984.625 62.0625 C 980.90519 77.251495 976.76503 91.885208 972.21875 105.9375 C 967.67235 119.88654 962.76958 132.96379 957.5 145.15625 C 955.43343 149.80592 953.24188 153.78731 950.96875 157.09375 C 948.79886 160.50349 946.37394 163.29888 943.6875 165.46875 C 941.00099 167.63857 937.97223 169.21671 934.5625 170.25 C 931.25605 171.28323 927.48635 171.81247 923.25 171.8125 C 922.1134 171.81247 920.9274 171.70662 919.6875 171.5 C 918.44758 171.39665 917.20866 171.18495 915.96875 170.875 C 914.83216 170.66832 913.72076 170.4037 912.6875 170.09375 C 911.75756 169.78374 911.1008 169.55038 910.6875 169.34375 L 913.3125 157.71875 C 914.44908 158.23536 915.8997 158.68043 917.65625 159.09375 C 919.51611 159.61036 921.3372 159.87498 923.09375 159.875 C 928.77666 159.87498 933.20312 158.58314 936.40625 156 C 939.60933 153.52016 942.51057 149.43293 945.09375 143.75 C 938.58418 131.35089 932.49541 118.22072 926.8125 104.375 C 921.23288 90.426036 916.56348 76.321561 912.84375 62.0625 z M 858.8125 105.3125 C 856.64261 105.31254 854.32354 105.47131 851.84375 105.78125 C 849.46722 106.09126 847.25399 106.77928 845.1875 107.8125 C 843.22428 108.74247 841.56196 110.08724 840.21875 111.84375 C 838.87549 113.497 838.21873 115.71022 838.21875 118.5 C 838.21873 123.66632 839.84979 127.27724 843.15625 129.34375 C 846.46265 131.30696 850.97328 132.28126 856.65625 132.28125 C 860.06597 132.28126 863.0418 132.22834 865.625 132.125 C 868.31143 131.91836 870.5559 131.60082 872.3125 131.1875 L 872.3125 107.1875 C 871.27919 106.67091 869.56395 106.24751 867.1875 105.9375 C 864.91428 105.52423 862.11889 105.31254 858.8125 105.3125 z M 1147.5 105.3125 C 1145.3301 105.31254 1143.011 105.47131 1140.5312 105.78125 C 1138.1547 106.09126 1135.9415 106.77928 1133.875 107.8125 C 1131.9118 108.74247 1130.2495 110.08724 1128.9062 111.84375 C 1127.563 113.497 1126.875 115.71022 1126.875 118.5 C 1126.875 123.66632 1128.5373 127.27724 1131.8438 129.34375 C 1135.1502 131.30696 1139.6608 132.28126 1145.3438 132.28125 C 1148.7535 132.28126 1151.7293 132.22834 1154.3125 132.125 C 1156.9989 131.91836 1159.2434 131.60082 1161 131.1875 L 1161 107.1875 C 1159.9667 106.67091 1158.2514 106.24751 1155.875 105.9375 C 1153.6018 105.52423 1150.8064 105.31254 1147.5 105.3125 z "
       transform="translate(-776.66858,292.36218)"
       id="rect2985" />
    <g
       id="g3942">
      <text
         sodipodi:linespacing="125%"
         id="text2987"
         y="430.07404"
         x="572.43182"
         style="font-size:77.49453735px;font-style:normal;font-variant:normal;font-weight:normal;font-stretch:normal;text-indent:0;text-align:start;text-decoration:none;line-height:125%;letter-spacing:-10px;word-spacing:0px;text-transform:none;direction:ltr;block-progression:tb;writing-mode:lr-tb;text-anchor:start;baseline-shift:baseline;color:#000000;fill:#ffffff;fill-opacity:1;fill-rule:nonzero;stroke:none;stroke-width:1px;marker:none;visibility:visible;display:inline;overflow:visible;enable-background:accumulate;font-family:Ubuntu;-inkscape-font-specification:Ubuntu"
         xml:space="preserve"><tspan
           style="font-size:154.98907471px;font-style:normal;font-variant:normal;font-weight:normal;font-stretch:normal;letter-spacing:15px;word-spacing:0px;fill:#000000;fill-opacity:1;font-family:Ubuntu;-inkscape-font-specification:Ubuntu"
           y="430.07404"
           x="572.43182"
           id="tspan2989"
           sodipodi:role="line">Group</tspan></text>
    </g>
  </g>
</svg>
