<?xml version="1.0" encoding="utf-8"?>
<!-- Generator: Adobe Illustrator 21.1.0, SVG Export Plug-In . SVG Version: 6.00 Build 0)  -->
<svg version="1.1" id="Layer_1" xmlns="http://www.w3.org/2000/svg" xmlns:xlink="http://www.w3.org/1999/xlink" x="0px" y="0px"
	 viewBox="0 0 209.8333282 63.5" style="enable-background:new 0 0 209.8333282 63.5;" xml:space="preserve">
<style type="text/css">
	.st0{fill:#FFFFFF;}
</style>
<g>
	<path class="st0" d="M55.3161469,14.9931002c-4.5558624,0-8.7453842,2.4967146-10.913456,6.5038328l-2.669548,4.9340515
		l-0.3103218,0.5736313l-0.300663,0.555706v0.0000172l-8.0635376,14.9033375L19.8957329,17.8612537h5.8542957l4.7142448,8.7648335
		l2.4736347,4.5990429l2.5537338-4.5550861l4.9385872-8.8087902h4.2689247
		c1.0309601-1.1484165,2.2364082-2.1138458,3.5634117-2.8681536h-9.5123749l-5.7601891,10.274291l-5.526186-10.274291H15.1085272
		l17.9359474,33.5236893l9.9840202-18.4529247l1.6552544-3.059248l0.3103218-0.5736313l1.9199257-3.5483246
		c0.1046066-0.1933689,0.2153778-0.3821697,0.3318901-0.566227c1.2813492-2.0247059,3.2628899-3.475729,5.5289879-4.1056404
		c0.6179886-0.1717834,1.2572594-0.282526,1.9091377-0.3271313c0.2173386-0.0148792,0.4360809-0.0224075,0.655941-0.0224075
		h26.1367226l-2.6390152,4.9185772H66.7434006l-0.8092804,1.5205555L54.7438126,45.3257217h-5.933979l9.8141556-18.2269421
		l2.2765999-4.227972H49.1235199c-0.6721916,1.0631542-1.6353683,2.8681545-1.6353683,2.8681545h8.6106682L44.0082054,48.1938744
		h12.4580765l11.9995918-22.5458889h12.087532l5.7169189-10.6548853H55.3161469z"/>
	<g>
		<path class="st0" d="M102.1021576,25.369072c0,0,1.3428879-3.0838413,2.0118256-4.615757s1.3428802-3.0702629,2.0218277-4.6161156
			c0.1529388-0.3534088,0.390213-0.6321335,0.712532-0.8368893c0.3223267-0.2043982,0.6775208-0.3065977,1.0655899-0.3065977
			h1.6945038l-6.4978638,14.897851h-2.4742203l-6.4978638-14.897851h1.684494c0.1872482,0,0.3723526,0.0278721,0.5560226,0.0832605
			c0.18367,0.0553875,0.3551941,0.1350737,0.5145721,0.2390594c0.1593704,0.1039867,0.30159,0.2251244,0.4266586,0.3637724
			c0.1243591,0.138648,0.22155,0.2912321,0.2908783,0.4573946l4.0236435,9.2215099l0.2358017,0.5404224L102.1021576,25.369072z"/>
		<path class="st0" d="M114.6300125,29.8915634h-2.7336502v-14.897851h2.7336502V29.8915634z"/>
		<path class="st0" d="M145.2486725,21.9175282v6.248085c-0.3744965,0.3744926-0.7797089,0.6828766-1.2163849,0.9255104
			s-0.8940582,0.4348831-1.3721771,0.576746c-0.4788361,0.1422215-0.9762573,0.239418-1.4922638,0.2912312
			c-0.5159912,0.0521717-1.0377045,0.0779018-1.5644226,0.0779018c-1.0534363,0-2.0411377-0.1990395-2.9630737-0.5978298
			c-0.921936-0.3984337-1.7295227-0.940876-2.4220428-1.6269684c-0.6932373-0.6860924-1.2392578-1.4901066-1.6380463-2.4116859
			c-0.3980713-0.921936-0.5974731-1.9096241-0.5974731-2.9630623c0-0.7000275,0.0900574-1.37397,0.2701569-2.0221844
			c0.1800995-0.6478577,0.4366608-1.2528343,0.7696991-1.8142147c0.3323364-0.5613804,0.7311249-1.0741634,1.1956635-1.5383472
			c0.4638214-0.4645424,0.9783936-0.8611889,1.5437012-1.1906567c0.5646057-0.3291092,1.1713715-0.5835352,1.8188629-0.7639923
			c0.6482239-0.1800985,1.3221588-0.2701483,2.0225525-0.2701483c0.5545807,0,1.0984497,0.0621767,1.6323242,0.1868887
			c0.5331421,0.124711,1.0462952,0.3051682,1.5386963,0.5406551c0.4916992,0.2358437,0.962677,0.5199299,1.4136505,0.8526115
			c0.4502411,0.3326836,0.869751,0.7068195,1.2578278,1.1227627l-0.6239166,0.6342773
			c-0.1936798,0.2008247-0.4037933,0.3498363-0.6289215,0.4470329c-0.2251129,0.096838-0.4831238,0.1454372-0.7739868,0.1454372
			c-0.3887939,0-0.7418365-0.110775-1.0605927-0.3326836c-0.3952179-0.2705059-0.8233032-0.4816952-1.2842712-0.6342793
			c-0.460968-0.1522255-0.9512482-0.2286968-1.4708099-0.2286968c-0.6653748,0-1.2964325,0.1282845-1.8924713,0.3848553
			c-0.5960541,0.2562122-1.1156158,0.6046181-1.559433,1.0445042c-0.4431,0.4402428-0.7954407,0.9551697-1.0548706,1.5440655
			c-0.2601471,0.5892525-0.390213,1.2199574-0.390213,1.8921127c0,0.6860924,0.1350708,1.3253746,0.4059296,1.9182014
			c0.2701569,0.5924683,0.6339264,1.1088238,1.0913239,1.5490665s0.9891205,0.7847195,1.595871,1.0341415
			c0.6060486,0.2497807,1.2421265,0.3744926,1.907486,0.3744926c0.3258972-0.0067902,0.655365-0.0346622,0.9876862-0.0832596
			c0.2844391-0.0414524,0.5888977-0.1072025,0.9147949-0.1976089c0.3258972-0.0900497,0.6239166-0.2183361,0.8940582-0.3844986
			V24.547905c-0.2908783-0.0067883-0.5767365-0.0121498-0.8576202-0.0157223
			c-0.2801514-0.0032158-0.5302887-0.0571747-0.7482605-0.1611595c-0.218689-0.1039867-0.3937836-0.2787266-0.5252838-0.5249329
			c-0.1315155-0.2458496-0.1972656-0.6114082-0.1972656-1.0966759v-0.8318863H145.2486725z"/>
		<path class="st0" d="M152.3840332,29.8915634h-2.7343597v-14.897851h2.7343597V29.8915634z"/>
		<path class="st0" d="M159.6072998,18.7462444v11.145319h-2.7236481v-14.897851h2.4013214
			c0.3330383,0,0.625351,0.0485983,0.8783417,0.1454372c0.253006,0.0971966,0.4523926,0.2462072,0.5981903,0.447032
			c1.039856,1.4765282,6.6222229,9.368475,6.6222229,9.368475v-9.9609442h2.7236481v14.897851h-2.5256805L159.6072998,18.7462444z"
			/>
		<path class="st0" d="M177.3406372,29.8915634h-2.7336426v-14.897851h2.7336426V29.8915634z"/>
		<path class="st0" d="M188.6006622,14.9937124h-2.4642181l-6.5078735,14.897851h1.6945038
			c0.1872406,0,0.372345-0.0275135,0.556015-0.0832596c0.1836853-0.0553875,0.3551941-0.1332874,0.5152893-0.2336998
			c0.1593781-0.1004124,0.3008728-0.2201214,0.4259491-0.3587685c0.125061-0.138649,0.2215576-0.2912331,0.2908783-0.4573956
			l0.8733368-2.0168247h0.0023193l1.5747986-3.6269989h0.0138397l1.793045-4.1617584l2.1783447,5.0543919h-1.2371063
			c-0.9259796,0-1.7636414,0.5495262-2.1324158,1.3988972l-0.5798187,1.3354683h5.1549988l0.8840637,2.0168247
			c0.1593781,0.3534088,0.3980713,0.6307049,0.7168274,0.8315296c0.3187408,0.2011814,0.6725159,0.3015938,1.0605774,0.3015938
			h1.6945038L188.6006622,14.9937124z"/>
		<path class="st0" d="M121.8531952,29.8910999h-2.7235565V14.9937124h5.5929031
			c0.7203751,0,1.3735733,0.1350698,1.9595947,0.4055681c0.5853043,0.2701406,1.0862808,0.6288986,1.5022049,1.0759163
			c0.4159393,0.4470177,0.7375336,0.9547825,0.966217,1.522934c0.2286987,0.5685101,0.3430328,1.1538143,0.3430328,1.7569847
			c0,0.436657-0.0585938,0.8629494-0.1757965,1.2785225c-0.1186371,0.4159298-0.2915802,0.8075619-0.5202789,1.1748962
			c-0.2286835,0.3673344-0.509552,0.7053661-0.8418655,1.0133839c-0.3330231,0.308733-0.7139359,0.5702972-1.1434479,0.7850513
			c0.7275238,0.99123,1.4514694,1.973526,2.172554,2.9472466c0.7203827,0.9737206,1.4479065,1.9528008,2.1825714,2.9368839
			h-2.1311188c-0.1450653,0-0.315155-0.0310879-0.5088348-0.0936203c-0.1943817-0.0621758-0.3973389-0.1611557-0.6081696-0.2962265
			c-0.2115402-0.1350689-0.4295044-0.3101597-0.6553421-0.5249157c-0.2251129-0.2147541-0.4452286-0.4784622-0.6603394-0.7900524
			l-2.7128372-3.6594028h-2.0374908V29.8910999z M124.8054428,21.7926044c0.2629929,0,0.5145569-0.0553856,0.7532501-0.1661587
			c0.2401276-0.1107712,0.4473724-0.2601357,0.6246109-0.4470177c0.1765213-0.1872406,0.316597-0.4037819,0.4202194-0.6499805
			c0.1043396-0.245842,0.1565094-0.500618,0.1565094-0.7639694c0-0.2704964-0.0521698-0.5284882-0.1565094-0.7746887
			c-0.1036224-0.245842-0.2436981-0.4623833-0.4202194-0.649622c-0.1772385-0.1872406-0.3844833-0.3358898-0.6246109-0.4470196
			c-0.2386932-0.1107712-0.4902573-0.1661568-0.7532501-0.1661568h-2.9522476v4.0646133H124.8054428z"/>
	</g>
	<g>
		<path class="st0" d="M96.1241608,36.2388153v-2.6303787h11.4984818v2.6303787h-4.3767014v12.2778358h-2.7343597V36.2388153
			H96.1241608z"/>
		<path class="st0" d="M119.4751205,48.5166512h-9.5645523V33.6187973h9.5645523v2.6092949h-6.8409119v3.4726295h5.5516357
			v2.6092949h-5.5516357v3.5973396h6.8409119V48.5166512z"/>
		<path class="st0" d="M123.9993286,41.062542c0,0.6721573,0.1300735,1.3046494,0.3895035,1.8971176
			c0.2601395,0.5928268,0.6131897,1.1091843,1.060585,1.5490685c0.4473877,0.4402428,0.9669571,0.7886467,1.5594254,1.0448608
			c0.5924759,0.2565689,1.224968,0.3848534,1.8974838,0.3848534c0.5195618,0,1.0098419-0.0778999,1.4708099-0.2340546
			c0.460968-0.1557999,0.8890533-0.369133,1.2842712-0.6392822c0.1522217-0.0968399,0.3166046-0.1733093,0.4938507-0.2286987
			c0.1765137-0.0553856,0.361618-0.0832596,0.556015-0.0832596c0.3115997,0,0.5767517,0.0503845,0.7954407,0.1507988
			c0.2179718,0.1004105,0.4209442,0.2408447,0.6081848,0.4209442l0.6339264,0.6342812
			c-0.3880768,0.4159431-0.8075867,0.7900772-1.257843,1.1227608c-0.4509583,0.3326836-0.9233551,0.6171265-1.419342,0.8526115
			c-0.495285,0.2354889-1.0084229,0.4159431-1.5387115,0.540657c-0.5302887,0.1247101-1.0720215,0.1868858-1.6266022,0.1868858
			c-1.0534439,0-2.0432739-0.1990356-2.968071-0.5978279c-0.9255066-0.3984337-1.7345276-0.940876-2.4277649-1.6269684
			s-1.2392578-1.4901085-1.6373291-2.4116859c-0.3987961-0.921936-0.5981903-1.9096222-0.5981903-2.9630623
			c0-0.7000275,0.0900497-1.37397,0.2708664-2.0221863c0.1800995-0.6478539,0.4366684-1.2528305,0.7689896-1.8142128
			c0.333046-0.5613785,0.7311172-1.0741615,1.1956635-1.5383453c0.4645386-0.4645424,0.9791107-0.8611908,1.5437088-1.1906586
			c0.5653076-0.3291092,1.1727905-0.5835342,1.8245773-0.7639923c0.6517868-0.1800995,1.3271561-0.2701492,2.0275497-0.2701492
			c0.5545807,0,1.0963135,0.0621796,1.6266022,0.1868896s1.0434265,0.3051682,1.5387115,0.5406532
			c0.4959869,0.2358475,0.9683838,0.5199318,1.419342,0.8526154c0.4502563,0.3326836,0.8697662,0.7068176,1.257843,1.1227608
			l-0.6339264,0.6342773c-0.1808014,0.1800995-0.3866425,0.3237495-0.6189117,0.4313087s-0.4938354,0.1611595-0.7847137,0.1611595
			c-0.3816376,0-0.7311096-0.110775-1.0498657-0.3326797c-0.402359-0.2705078-0.8340302-0.4816971-1.294281-0.6342812
			c-0.460968-0.1522255-0.9483795-0.2286949-1.4608002-0.2286949c-0.6725159,0-1.3050079,0.1282845-1.8974838,0.3848534
			c-0.5924683,0.2562141-1.1120377,0.6046181-1.5594254,1.0445061c-0.4473953,0.440239-0.8004456,0.9551659-1.060585,1.5440636
			C124.1294022,39.7596817,123.9993286,40.3903885,123.9993286,41.062542z"/>
		<path class="st0" d="M150.5256195,48.5166512h-2.7336578v-6.1755447h-7.3190308v6.1755447h-2.7243652V33.6187973h2.7243652
			v6.1130142h7.3190308v-6.1130142h2.7336578V48.5166512z"/>
	</g>
	<g>
		<polygon class="st0" points="157.4106598,48.5166512 157.0372772,48.5166512 157.0372772,46.4343529 157.0259857,46.4343529 
			156.1855927,48.5166512 155.9576721,48.5166512 155.1416779,46.4343529 155.1296997,46.4343529 155.1296997,48.5166512 
			154.7563171,48.5166512 154.7563171,46.0610313 155.3684692,46.0610313 156.0747528,47.7935867 156.8039246,46.0610313 
			157.4106598,46.0610313 		"/>
		<polygon class="st0" points="154.3071442,46.4343529 153.5024261,46.4343529 153.5024261,48.5166512 153.1287384,48.5166512 
			153.1287384,46.4343529 152.3240204,46.4343529 152.3240204,46.0610313 154.3071442,46.0610313 		"/>
	</g>
</g>
</svg>
