<?xml version="1.0" encoding="UTF-8" standalone="no"?>
<!-- Created with Inkscape (http://www.inkscape.org/) -->

<svg
   xmlns:dc="http://purl.org/dc/elements/1.1/"
   xmlns:cc="http://creativecommons.org/ns#"
   xmlns:rdf="http://www.w3.org/1999/02/22-rdf-syntax-ns#"
   xmlns:svg="http://www.w3.org/2000/svg"
   xmlns="http://www.w3.org/2000/svg"
   xmlns:sodipodi="http://sodipodi.sourceforge.net/DTD/sodipodi-0.dtd"
   xmlns:inkscape="http://www.inkscape.org/namespaces/inkscape"
   width="744.09448819"
   height="1052.3622047"
   id="svg2"
   version="1.1"
   inkscape:version="0.48.4 r9939"
   sodipodi:docname="New document 1">
  <defs
     id="defs4" />
  <sodipodi:namedview
     id="base"
     pagecolor="#ffffff"
     bordercolor="#666666"
     borderopacity="1.0"
     inkscape:pageopacity="0.0"
     inkscape:pageshadow="2"
     inkscape:zoom="2.8"
     inkscape:cx="129.96559"
     inkscape:cy="679.27013"
     inkscape:document-units="px"
     inkscape:current-layer="layer1"
     showgrid="false"
     inkscape:window-width="2495"
     inkscape:window-height="1416"
     inkscape:window-x="65"
     inkscape:window-y="24"
     inkscape:window-maximized="1" />
  <metadata
     id="metadata7">
    <rdf:RDF>
      <cc:Work
         rdf:about="">
        <dc:format>image/svg+xml</dc:format>
        <dc:type
           rdf:resource="http://purl.org/dc/dcmitype/StillImage" />
        <dc:title></dc:title>
      </cc:Work>
    </rdf:RDF>
  </metadata>
  <g
     inkscape:label="Layer 1"
     inkscape:groupmode="layer"
     id="layer1">
    <path
       style="fill:#000000;fill-opacity:0.56164384"
       d="M 248.3125 402.0625 C 244.11532 402.0625 240.75 405.42782 240.75 409.625 L 240.75 433.375 C 240.75 437.57218 244.11532 440.9375 248.3125 440.9375 L 272.0625 440.9375 C 276.25968 440.9375 279.625 437.57218 279.625 433.375 L 279.625 409.625 C 279.625 405.42782 276.25968 402.0625 272.0625 402.0625 L 248.3125 402.0625 z M 254.28125 410.875 C 255.61457 410.87502 256.74957 411.06419 257.65625 411.4375 C 258.5629 411.78419 259.32415 412.30669 259.9375 413 C 260.12415 412.86669 260.41248 412.67752 260.8125 412.4375 C 261.21248 412.19752 261.69456 411.96335 262.28125 411.75 C 262.8679 411.51002 263.52998 411.31627 264.25 411.15625 C 264.96998 410.9696 265.73581 410.87502 266.5625 410.875 C 268.16247 410.87502 269.48664 411.11377 270.5 411.59375 C 271.5133 412.0471 272.28372 412.70919 272.84375 413.5625 C 273.43039 414.41585 273.8133 415.42043 274 416.59375 C 274.2133 417.7671 274.34372 419.05085 274.34375 420.4375 L 274.34375 432.125 L 270.625 432.125 L 270.625 421.21875 C 270.62497 419.9921 270.53956 418.94251 270.40625 418.0625 C 270.29956 417.18251 270.06539 416.46168 269.71875 415.875 C 269.39872 415.28835 268.96164 414.86043 268.375 414.59375 C 267.81498 414.30043 267.06289 414.15627 266.15625 414.15625 C 264.90289 414.15627 263.88915 414.34085 263.0625 414.6875 C 262.26248 415.00752 261.69956 415.29585 261.40625 415.5625 C 261.61956 416.25585 261.79956 417.0171 261.90625 417.84375 C 262.0129 418.67043 262.06248 419.53085 262.0625 420.4375 L 262.0625 432.125 L 258.34375 432.125 L 258.34375 421.21875 C 258.34373 419.9921 258.25832 418.94251 258.125 418.0625 C 257.99165 417.18251 257.7529 416.46168 257.40625 415.875 C 257.08624 415.28835 256.64915 414.86043 256.0625 414.59375 C 255.50249 414.30043 254.78624 414.15627 253.90625 414.15625 C 253.53291 414.15627 253.11416 414.16085 252.6875 414.1875 C 252.26082 414.21418 251.83749 414.25918 251.4375 414.3125 C 251.06416 414.33918 250.72624 414.38418 250.40625 414.4375 C 250.08624 414.49085 249.88791 414.53585 249.78125 414.5625 L 249.78125 432.125 L 246.0625 432.125 L 246.0625 411.90625 C 246.91583 411.69294 248.01958 411.45877 249.40625 411.21875 C 250.81958 410.97877 252.44124 410.87502 254.28125 410.875 z "
       id="rect2989"
       inkscape:export-filename="/home/nmayhall/work/websites/site3/images/m2.png"
       inkscape:export-xdpi="90"
       inkscape:export-ydpi="90" />
  </g>
</svg>
