<?xml version="1.0" encoding="UTF-8"?>
<svg width="363pt" xmlns:xlink="http://www.w3.org/1999/xlink" xmlns="http://www.w3.org/2000/svg" height="62pt" viewBox="0 0 363 62">
 <g transform="translate(0.00195313, 3.2207)" style="fill: #660000; fill-rule: nonzero; stroke: none; stroke-width: 1; stroke-linecap: butt; stroke-linejoin: miter; stroke-dasharray: none;">
  <path d="M31.1152 30.6885 C31.1152 30.6885 27.8544 30.6885 27.8544 30.6885 C27.8544 30.6885 27.8544 2.45899 27.8544 2.45899 C27.8544 2.45899 31.1152 2.45899 31.1152 2.45899 C31.1152 2.45899 31.1152 30.6885 31.1152 30.6885 Z M27.0253 28.6738 C27.0253 28.6738 25.3037 28.6738 25.3037 28.6738 C25.3037 28.6738 25.3037 3.65625 25.3037 3.65625 C25.3037 3.65625 27.0253 3.65625 27.0253 3.65625 C27.0253 3.65625 27.0253 28.6738 27.0253 28.6738 Z M24.5332 27.6641 C24.5332 27.6641 23.7353 27.6641 23.7353 27.6641 C23.7353 27.6641 23.7353 4.78907 23.7353 4.78907 C23.7353 4.78907 24.5332 4.78907 24.5332 4.78907 C24.5332 4.78907 24.5332 27.6641 24.5332 27.6641 Z M22.5039 27.2217 C22.5039 27.2217 20.7832 27.2217 20.7832 27.2217 C20.7832 27.2217 20.7832 25.6484 20.7832 25.6484 C20.7832 25.6484 22.5039 25.6484 22.5039 25.6484 C22.5039 25.6484 22.5039 27.2217 22.5039 27.2217 Z M19.6132 27.7266 C19.6132 27.7266 18.8154 27.7266 18.8154 27.7266 C18.8154 27.7266 18.8154 4.85254 18.8154 4.85254 C18.8154 4.85254 19.6132 4.85254 19.6132 4.85254 C19.6132 4.85254 19.6132 27.7266 19.6132 27.7266 Z M18.0771 28.6738 C18.0771 28.6738 16.3554 28.6738 16.3554 28.6738 C16.3554 28.6738 16.3554 3.65625 16.3554 3.65625 C16.3554 3.65625 18.0771 3.65625 18.0771 3.65625 C18.0771 3.65625 18.0771 28.6738 18.0771 28.6738 Z M15.4345 30.6885 C15.4345 30.6885 12.1748 30.6885 12.1748 30.6885 C12.1748 30.6885 12.1748 2.45899 12.1748 2.45899 C12.1748 2.45899 15.4345 2.45899 15.4345 2.45899 C15.4345 2.45899 15.4345 30.6885 15.4345 30.6885 Z M0 0 C0 0 0 31.3184 0 31.3184 C0 31.3184 5.04102 31.3184 5.04102 31.3184 C5.04102 31.3184 5.04102 1.38672 5.04102 1.38672 C5.04102 1.38672 11.1279 1.38672 11.1279 1.38672 C11.1279 1.38672 11.1279 31.3184 11.1279 31.3184 C11.1279 31.3184 32.0966 31.3184 32.0966 31.3184 C32.0966 31.3184 32.0966 1.38672 32.0966 1.38672 C32.0966 1.38672 38.1835 1.38672 38.1835 1.38672 C38.1835 1.38672 38.1835 31.3184 38.1835 31.3184 C38.1835 31.3184 43.7197 31.3184 43.7197 31.3184 C43.7197 31.3184 43.7197 0 43.7197 0 C43.7197 0 0 0 0 0 Z"/>
 </g>
 <g transform="translate(50.0625, 3.47461)" style="fill: #000000; fill-rule: evenodd; stroke: none; stroke-width: 1; stroke-linecap: butt; stroke-linejoin: miter; stroke-dasharray: none;">
  <path d="M0 2.56543 C3.1025 2.56543 3.5088 3.91309 5.7324 8.02639 C8.5635 13.2178 16.0479 34.1192 19.418 43.9609 C19.418 43.9609 25.8906 43.1543 25.8906 43.1543 C30.208 28.4531 35.5313 14.0918 41.668 0 C41.668 0 26.9697 0 26.9697 0 C26.9697 0 26.1602 2.56543 26.1602 2.56543 C31.4189 2.56543 33.4434 3.91309 33.4434 7.14939 C33.4434 10.9238 24.8135 32.7695 23.3281 38.2969 C23.3281 38.2969 23.1943 38.2969 23.1943 38.2969 C17.3965 24.0039 12.4053 9.03809 12.4053 6.47461 C12.4053 4.04785 13.8232 2.56543 19.418 2.56543 C19.418 2.56543 20.2275 0 20.2275 0 C20.2275 0 0.8105 0 0.8105 0 C0.8105 0 0 2.56543 0 2.56543 Z"/>
 </g>
 <g transform="translate(88.2344, 5.23047)" style="fill: #000000; fill-rule: evenodd; stroke: none; stroke-width: 1; stroke-linecap: butt; stroke-linejoin: miter; stroke-dasharray: none;">
  <path d="M10.3808 2.36035 C10.3808 0.60547 10.0429 0 9.2353 0 C8.1552 0 4.7177 0.80957 4.7177 2.08887 C4.7177 3.84375 4.8525 4.45019 4.8525 5.46093 C4.8525 6.27053 4.7842 6.94533 4.7177 7.55173 C10.3144 5.39353 10.3808 5.52733 10.3808 2.36035 Z M14.4266 41.3984 C14.4266 41.3984 15.2366 38.832 15.2366 38.832 C10.6513 38.6992 10.1123 37.7558 10.1123 33.0371 C10.1123 33.0371 10.1123 13.7539 10.1123 13.7539 C10.1123 12.2695 10.2461 10.7207 10.2461 9.70903 C7.2773 10.8554 4.0449 11.5957 0.8076 12 C0.8076 12 0 14.5625 0 14.5625 C3.5039 14.6963 4.9853 15.6396 4.9853 18.6074 C4.9853 18.6074 4.9853 34.9238 4.9853 34.9238 C4.9853 37.7558 3.9092 38.6992 0.9424 38.832 C0.9424 38.832 0.1328 41.3984 0.1328 41.3984 C0.1328 41.3984 14.4266 41.3984 14.4266 41.3984 Z"/>
 </g>
 <g transform="translate(104.232, 14.9395)" style="fill: #000000; fill-rule: evenodd; stroke: none; stroke-width: 1; stroke-linecap: butt; stroke-linejoin: miter; stroke-dasharray: none;">
  <path d="M15.776 31.6894 C15.776 31.6894 16.584 29.123 16.584 29.123 C10.652 29.1923 10.113 27.8457 10.113 21.5078 C10.113 13.2138 10.923 9.6396 12.878 7.3486 C14.156 6.0673 15.575 5.7988 19.485 5.664 C19.485 5.664 21.508 0 21.508 0 C15.237 0 10.989 3.9111 9.573 9.0341 C9.573 9.0341 9.44 9.0341 9.44 9.0341 C9.44 9.0341 9.44 0 9.44 0 C6.676 0.9423 3.708 1.7529 0.81 2.291 C0.81 2.291 0 4.8535 0 4.8535 C4.179 4.8535 4.989 5.5957 4.989 8.6962 C4.989 8.6962 4.989 25.8203 4.989 25.8203 C4.989 28.248 4.245 28.9902 1.078 29.123 C1.078 29.123 0.271 31.6894 0.271 31.6894 C0.271 31.6894 15.776 31.6894 15.776 31.6894 Z"/>
 </g>
 <g transform="translate(122.069, 14.9395)" style="fill: #000000; fill-rule: evenodd; stroke: none; stroke-width: 1; stroke-linecap: butt; stroke-linejoin: miter; stroke-dasharray: none;">
  <path d="M28.993 0.6718 C25.553 0.8076 23.528 0.8759 20.63 1.6162 C19.012 0.4707 16.382 0 13.619 0 C6.134 0 2.019 5.2587 2.019 13.3496 C2.019 17.7324 3.573 20.498 7.35 22.4511 C3.842 24.6777 2.29 25.957 2.29 27.9804 C2.29 29.2607 3.236 30.4043 4.314 30.7441 C1.281 32.8339 0 35.1943 0 38.7656 C0 44.9023 6.405 47.0605 11.46 47.0605 C18.877 47.0605 28.721 43.2158 28.721 34.5195 C28.721 29.8691 25.621 27.6435 20.426 27.6435 C17.597 27.6435 14.698 27.9121 12.271 27.9121 C9.436 27.9121 7.954 27.4394 7.954 26.2275 C7.954 24.6777 9.505 23.3281 10.382 23.3281 C20.426 23.3281 24.54 16.5849 24.54 9.9111 C24.54 8.4287 23.934 6.2021 22.787 4.3134 C22.787 4.3134 27.643 4.5839 27.643 4.5839 C27.643 4.5839 28.993 0.6718 28.993 0.6718 Z M6.743 11.8652 C6.743 4.4492 7.682 3.3691 11.932 3.3691 C18.204 3.3691 19.418 5.122 19.418 11.3261 C19.418 17.5293 18.338 19.6875 14.225 19.6875 C9.436 19.6875 6.743 17.5293 6.743 11.8652 Z M24.947 36.541 C24.947 40.5869 19.284 42.6084 12.605 42.6084 C7.282 42.6084 4.719 39.6425 4.719 37.0126 C4.719 34.3837 5.661 32.9003 6.538 31.6894 C7.887 32.0927 11.122 32.0927 18.338 32.0927 C22.651 32.0927 24.947 33.9785 24.947 36.541 Z"/>
 </g>
 <g transform="translate(151.187, 5.23047)" style="fill: #000000; fill-rule: evenodd; stroke: none; stroke-width: 1; stroke-linecap: butt; stroke-linejoin: miter; stroke-dasharray: none;">
  <path d="M10.384 2.36035 C10.384 0.60547 10.046 0 9.236 0 C8.158 0 4.72 0.80957 4.72 2.08887 C4.72 3.84375 4.853 4.45019 4.853 5.46093 C4.853 6.27053 4.787 6.94533 4.72 7.55173 C10.317 5.39353 10.384 5.52733 10.384 2.36035 Z M14.427 41.3984 C14.427 41.3984 15.239 38.832 15.239 38.832 C10.652 38.6992 10.112 37.7558 10.112 33.0371 C10.112 33.0371 10.112 13.7539 10.112 13.7539 C10.112 12.2695 10.248 10.7207 10.248 9.70903 C7.281 10.8554 4.045 11.5957 0.81 12 C0.81 12 0 14.5625 0 14.5625 C3.506 14.6963 4.989 15.6396 4.989 18.6074 C4.989 18.6074 4.989 34.9238 4.989 34.9238 C4.989 37.7558 3.91 38.6992 0.943 38.832 C0.943 38.832 0.135 41.3984 0.135 41.3984 C0.135 41.3984 14.427 41.3984 14.427 41.3984 Z"/>
 </g>
 <g transform="translate(167.187, 14.9395)" style="fill: #000000; fill-rule: evenodd; stroke: none; stroke-width: 1; stroke-linecap: butt; stroke-linejoin: miter; stroke-dasharray: none;">
  <path d="M24.944 21.1699 C24.944 28.3847 23.935 28.5185 20.09 29.123 C20.09 29.123 19.281 31.6894 19.281 31.6894 C19.281 31.6894 33.71 31.6894 33.71 31.6894 C33.71 31.6894 34.518 29.123 34.518 29.123 C31.011 28.9902 30.071 27.6435 30.071 24.9453 C30.071 24.9453 30.071 8.3603 30.071 8.3603 C30.071 3.7753 26.833 0 21.236 0 C15.234 0 12.674 3.1005 9.707 7.0117 C9.707 7.0117 9.571 7.0117 9.571 7.0117 C9.571 7.0117 9.571 0 9.571 0 C6.54 1.1464 3.842 1.9541 0.808 2.5605 C0.808 2.5605 0 5.122 0 5.122 C4.245 5.2587 4.851 5.7294 4.851 12.6074 C4.851 12.6074 4.851 21.7089 4.851 21.7089 C4.851 27.9121 4.381 28.248 0.943 29.123 C0.943 29.123 0.133 31.6894 0.133 31.6894 C0.133 31.6894 15.371 31.6894 15.371 31.6894 C15.371 31.6894 16.177 29.123 16.177 29.123 C11.123 28.6543 9.978 27.9804 9.978 21.7763 C9.978 21.7763 9.978 18.6074 9.978 18.6074 C9.978 8.0888 12.674 4.4492 18.136 4.4492 C22.787 4.4492 24.944 6.4707 24.944 12.4043 C24.944 12.4043 24.944 21.1699 24.944 21.1699 Z"/>
 </g>
 <g transform="translate(202.492, 5.23047)" style="fill: #000000; fill-rule: evenodd; stroke: none; stroke-width: 1; stroke-linecap: butt; stroke-linejoin: miter; stroke-dasharray: none;">
  <path d="M10.382 2.36035 C10.382 0.60547 10.045 0 9.237 0 C8.155 0 4.716 0.80957 4.716 2.08887 C4.716 3.84375 4.854 4.45019 4.854 5.46093 C4.854 6.27053 4.785 6.94533 4.716 7.55173 C10.316 5.39353 10.382 5.52733 10.382 2.36035 Z M14.428 41.3984 C14.428 41.3984 15.236 38.832 15.236 38.832 C10.653 38.6992 10.113 37.7558 10.113 33.0371 C10.113 33.0371 10.113 13.7539 10.113 13.7539 C10.113 12.2695 10.246 10.7207 10.246 9.70903 C7.279 10.8554 4.044 11.5957 0.808 12 C0.808 12 0 14.5625 0 14.5625 C3.504 14.6963 4.989 15.6396 4.989 18.6074 C4.989 18.6074 4.989 34.9238 4.989 34.9238 C4.989 37.7558 3.908 38.6992 0.941 38.832 C0.941 38.832 0.134 41.3984 0.134 41.3984 C0.134 41.3984 14.428 41.3984 14.428 41.3984 Z"/>
 </g>
 <g transform="translate(218.087, 14.9395)" style="fill: #000000; fill-rule: evenodd; stroke: none; stroke-width: 1; stroke-linecap: butt; stroke-linejoin: miter; stroke-dasharray: none;">
  <path d="M17.795 21.3046 C17.795 24.9453 15.373 28.7226 10.11 28.7226 C7.55 28.7226 5.527 26.6972 5.527 24.0019 C5.527 19.4169 11.056 17.7988 17.795 14.5625 C17.795 14.5625 17.795 21.3046 17.795 21.3046 Z M27.371 29.123 C23.729 28.9902 22.922 27.7773 22.922 25.8906 C22.922 25.8906 22.922 7.955 22.922 7.955 C22.922 2.291 20.494 0 13.011 0 C7.55 0 5.392 0.6718 3.64 1.2793 C3.64 1.2793 2.019 5.664 2.019 5.664 C5.121 4.9873 8.157 4.1787 11.258 4.1787 C15.909 4.1787 17.795 5.7988 17.795 8.2255 C17.795 8.2255 17.795 11.5273 17.795 11.5273 C11.73 15.371 0 17.124 0 25.1484 C0 29.9345 3.974 32.496 8.224 32.496 C13.075 32.496 15.439 31.0117 18.066 27.1035 C18.066 27.1035 18.202 27.1035 18.202 27.1035 C18.202 27.1035 18.202 31.6894 18.202 31.6894 C18.202 31.6894 26.293 31.6894 26.293 31.6894 C26.293 31.6894 27.371 29.123 27.371 29.123 Z"/>
 </g>
 <g transform="translate(244.797, 3.5957)" style="fill: #000000; fill-rule: evenodd; stroke: none; stroke-width: 1; stroke-linecap: butt; stroke-linejoin: miter; stroke-dasharray: none;">
  <path d="M7.145 43.1514 C7.145 43.1514 27.778 43.1514 27.778 43.1514 C27.778 43.1514 28.585 40.5879 28.585 40.5879 C21.572 40.4531 20.493 38.7012 20.493 28.8584 C20.493 28.8584 20.493 12.2715 20.493 12.2715 C20.493 7.6885 20.629 5.32813 20.764 2.96778 C30.678 2.96778 32.227 3.91211 32.901 11.8662 C32.901 11.8662 35.871 10.7881 35.871 10.7881 C35.871 10.7881 35.871 0 35.871 0 C35.871 0 0 0 0 0 C0 0 0 11.8662 0 11.8662 C0 11.8662 2.967 10.7881 2.967 10.7881 C3.639 3.91211 4.653 2.96778 15.101 2.96778 C15.234 5.32813 15.37 7.958 15.37 12.2715 C15.37 12.2715 15.37 28.8584 15.37 28.8584 C15.37 38.7012 14.293 40.4531 7.955 40.5879 C7.955 40.5879 7.145 43.1514 7.145 43.1514 Z"/>
 </g>
 <g transform="translate(275.67, 15.0586)" style="fill: #000000; fill-rule: evenodd; stroke: none; stroke-width: 1; stroke-linecap: butt; stroke-linejoin: miter; stroke-dasharray: none;">
  <path d="M5.662 11.8662 C7.013 4.7197 9.032 2.9658 13.485 2.9658 C17.932 2.9658 20.764 6.2021 20.764 8.9687 C20.764 10.6523 20.093 11.1934 16.719 11.3262 C16.719 11.3262 5.662 11.8662 5.662 11.8662 Z M25.754 26.9687 C22.855 27.5068 19.957 28.3164 17.059 28.3164 C8.898 28.3164 5.526 23.1914 5.526 14.832 C5.526 14.832 26.834 14.293 26.834 14.293 C26.834 4.1807 21.573 0 14.561 0 C6.47 0 0 6.6074 0 16.4492 C0 26.5654 6.47 32.4971 15.305 32.4971 C18.339 32.4971 21.438 31.8887 24.406 31.1484 C24.406 31.1484 25.754 26.9687 25.754 26.9687 Z"/>
 </g>
 <g transform="translate(304.548, 15.0586)" style="fill: #000000; fill-rule: evenodd; stroke: none; stroke-width: 1; stroke-linecap: butt; stroke-linejoin: miter; stroke-dasharray: none;">
  <path d="M21.978 0.8086 C20.431 0.4033 18.945 0 16.453 0 C7.151 0 0 5.9336 0 16.5859 C0 26.9687 5.8 32.4971 16.182 32.4971 C17.734 32.4971 20.225 32.2285 22.654 31.6885 C22.654 31.6885 24.003 27.373 24.003 27.373 C22.048 27.7773 19.487 28.3164 16.99 28.3164 C9.712 28.3164 5.531 24.4072 5.531 15.2373 C5.531 10.7861 6.946 5.9336 8.898 4.6523 C9.712 4.1123 11.326 3.7764 13.35 3.7764 C16.924 3.7764 19.822 4.6523 22.654 5.5303 C22.654 5.5303 21.978 0.8086 21.978 0.8086 Z"/>
 </g>
 <g transform="translate(327.398, 0.958984)" style="fill: #000000; fill-rule: nonzero; stroke: none; stroke-width: 1; stroke-linecap: butt; stroke-linejoin: miter; stroke-dasharray: none;">
  <path d="M6.058 14.5058 C6.058 14.5058 6.058 36.1318 6.058 36.1318 C6.058 42.1865 5.598 42.5137 1.978 43.3721 C1.978 43.3721 1.188 45.8711 1.188 45.8711 C1.188 45.8711 16.195 45.8711 16.195 45.8711 C16.195 45.8711 16.982 43.3721 16.982 43.3721 C12.177 42.9101 11.059 42.25 11.059 36.2012 C11.059 36.2012 11.059 33.1064 11.059 33.1064 C11.059 22.8379 13.691 19.2832 19.023 19.2832 C23.565 19.2832 25.668 21.2578 25.668 27.0478 C25.668 27.0478 25.668 35.6045 25.668 35.6045 C25.668 42.6474 24.684 42.7793 20.669 43.3721 C20.669 43.3721 19.88 45.8711 19.88 45.8711 C19.88 45.8711 34.751 45.8711 34.751 45.8711 C34.751 45.8711 35.542 43.3721 35.542 43.3721 C31.593 43.2392 30.672 41.9238 30.672 39.291 C30.672 39.291 30.672 23.1015 30.672 23.1015 C30.672 18.6269 27.515 14.9404 22.051 14.9404 C16.195 14.9404 13.691 17.8359 11.192 21.1269 C11.192 21.1269 11.059 21.1269 11.059 21.1269 C11.059 21.1269 11.059 14.5068 11.059 14.5068 C11.059 14.5068 11.059 11.7148 11.059 11.7148 C11.059 5.26368 11.192 1.25 11.323 0 C9.017 0.919926 4.147 2.1709 0.792 3.02735 C0.792 3.02735 0 5.52735 0 5.52735 C4.739 5.65821 6.058 6.05372 6.058 12.373 C6.058 12.373 6.058 14.5058 6.058 14.5058 Z"/>
 </g>
 <g transform="translate(-0.333008, 36.1387)" style="fill: #660000; fill-rule: nonzero; stroke: none; stroke-width: 1; stroke-linecap: butt; stroke-linejoin: miter; stroke-dasharray: none;">
  <path d="M17.0801 6.0976 C17.4394 6.0146 17.7978 5.6133 17.7978 5.1679 C17.7978 4.6826 17.5225 4.2002 16.9004 4.2002 C16.9004 4.2002 16.8848 4.2002 16.8848 4.2002 C16.292 4.2002 15.998 4.6015 15.998 5.0722 C15.998 5.5439 16.4834 5.9013 17.0801 6.0976 Z M16.7715 7.6113 C16.2324 7.75 15.9121 8.166 15.9121 8.7187 C15.9121 9.2715 16.3281 9.7988 16.9394 9.7988 C16.9394 9.7988 16.9521 9.7988 16.9521 9.7988 C17.5351 9.7988 17.9346 9.3965 17.9346 8.8711 C17.9346 8.2197 17.4238 7.7763 16.7715 7.6113 Z M40.1514 11.0976 C40.1514 11.0976 34.0967 11.0976 34.0967 11.0976 C34.0967 11.0976 34.0967 9.7246 34.0967 9.7246 C34.0967 9.7246 35.2295 8.7285 35.2295 8.7285 C36.8916 7.2949 37.7363 6.4375 37.748 5.6074 C37.748 5.0166 37.3564 4.5879 36.5264 4.5879 C35.8476 4.5879 35.2295 4.9277 34.7764 5.2539 C34.7764 5.2539 34.1582 3.6308 34.1582 3.6308 C34.7891 3.164 35.8213 2.7744 36.9805 2.7744 C38.8809 2.7744 40.0137 3.8066 40.0137 5.4189 C40.0137 6.7275 39.084 7.7851 38.1133 8.5791 C38.1133 8.5791 37.3086 9.209 37.3086 9.209 C37.3086 9.209 37.3086 9.2324 37.3086 9.2324 C37.3086 9.2324 40.1514 9.2324 40.1514 9.2324 C40.1514 9.2324 40.1514 11.0976 40.1514 11.0976 Z M30.0654 4.3222 C30.0654 4.3222 26.7812 11.0976 26.7812 11.0976 C26.7812 11.0976 24.3633 11.0976 24.3633 11.0976 C24.3633 11.0976 27.6631 4.8017 27.6631 4.8017 C27.6631 4.8017 27.6631 4.7763 27.6631 4.7763 C27.6631 4.7763 24.0234 4.7763 24.0234 4.7763 C24.0234 4.7763 24.0234 2.9131 24.0234 2.9131 C24.0234 2.9131 30.0654 2.9131 30.0654 2.9131 C30.0654 2.9131 30.0654 4.3222 30.0654 4.3222 Z M16.8603 11.2343 C14.6064 11.2343 13.6894 10.0009 13.6894 8.9433 C13.6894 7.9619 14.2305 7.3193 15.0723 6.9414 C15.0723 6.9414 15.0723 6.917 15.0723 6.917 C14.3281 6.5009 13.9394 5.8476 13.9394 5.1289 C13.9394 3.707 15.249 2.7744 16.9609 2.7744 C16.9609 2.7744 16.9736 2.7744 16.9736 2.7744 C19.0518 2.7744 19.8447 3.9326 19.8447 4.916 C19.8447 5.6201 19.4404 6.3008 18.7119 6.6777 C18.7119 6.6777 18.7119 6.7031 18.7119 6.7031 C19.416 6.9677 20.1601 7.623 20.1601 8.7051 C20.1601 10.2148 18.8994 11.2343 16.8603 11.2343 Z M8.33594 11.0976 C8.33594 11.0976 6.14356 11.0976 6.14356 11.0976 C6.14356 11.0976 6.14356 4.916 6.14356 4.916 C6.14356 4.916 6.11914 4.916 6.11914 4.916 C6.11914 4.916 4.50879 5.6445 4.50879 5.6445 C4.50879 5.6445 4.1416 3.9443 4.1416 3.9443 C4.1416 3.9443 6.48633 2.9131 6.48633 2.9131 C6.48633 2.9131 8.33594 2.9131 8.33594 2.9131 C8.33594 2.9131 8.33594 11.0976 8.33594 11.0976 Z M0.365235 0.0019 C0.365235 0.0019 0.365235 1.041 0.365235 1.041 C0.365235 1.041 0.365235 4.9883 0.365235 8.5595 C0.365235 8.5595 0 11.3799 1.73828 12.6338 C3.37598 13.8154 22.2012 21.8447 22.2012 21.8447 C22.2012 21.8447 41.1562 13.7051 42.6836 12.3847 C44.0566 11.1943 44.0566 8.5595 44.0566 8.5595 C44.0566 4.9883 44.0566 1.041 44.0566 1.041 C44.0566 1.041 44.0566 0 44.0566 0 C44.0566 0 0.365235 0.0019 0.365235 0.0019 Z"/>
 </g>
</svg>
