<?xml version="1.0" encoding="utf-8"?>
<!-- Generator: Adobe Illustrator 21.1.0, SVG Export Plug-In . SVG Version: 6.00 Build 0)  -->
<svg version="1.1" id="Layer_1" xmlns="http://www.w3.org/2000/svg" xmlns:xlink="http://www.w3.org/1999/xlink" x="0px" y="0px"
	 viewBox="0 0 205.1999969 108" style="enable-background:new 0 0 205.1999969 108;" xml:space="preserve">
<g>
	<g>
		<path d="M130.2401733,77.1650467v-2.8068771h12.2700348v2.8068771h-4.6703796v13.1016998h-2.9178467V77.1650467H130.2401733z"/>
		<path d="M155.15802,90.2667465h-10.2063599v-15.897522H155.15802v2.7843857h-7.2999573v3.7056427h5.9241638v2.7843857h-5.9241638
			v3.8387299h7.2999573V90.2667465z"/>
		<path d="M159.9858093,82.3124619c0,0.7172546,0.1387939,1.392189,0.4156342,2.0244141
			c0.2776031,0.6326065,0.6543427,1.183609,1.1317444,1.6530151c0.477417,0.46978,1.0318451,0.841568,1.6640778,1.1149673
			c0.6322174,0.2737885,1.3071594,0.4106827,2.0247955,0.4106827c0.5544434,0,1.0776062-0.0831299,1.5695038-0.2497635
			c0.4918976-0.1662521,0.9487152-0.393898,1.3704529-0.6821747c0.1624451-0.1033401,0.3378601-0.1849442,0.5269928-0.2440491
			c0.1883698-0.0591049,0.3858948-0.0888443,0.5933228-0.0888443c0.3325043,0,0.615448,0.0537643,0.8488159,0.1609192
			c0.232605,0.1071472,0.4491882,0.2570038,0.6490021,0.4491882l0.6764526,0.6768417
			c-0.4141083,0.4438553-0.8617706,0.8430939-1.3422394,1.1980972c-0.4812164,0.355011-0.985321,0.6585388-1.5145874,0.9098282
			c-0.5285034,0.2512894-1.0760803,0.4438553-1.6419525,0.5769348s-1.1439514,0.1994247-1.7357635,0.1994247
			c-1.1241302,0-2.1803741-0.2123947-3.1672211-0.6379395c-0.9876099-0.4251709-1.8509216-1.0040131-2.590683-1.736145
			c-0.7397461-0.732132-1.322403-1.5900955-1.7471924-2.5735092c-0.4255524-0.9838028-0.6383209-2.0377655-0.6383209-3.1618881
			c0-0.7470016,0.0960846-1.4661713,0.289032-2.1578827c0.1921844-0.69133,0.4659729-1.3368988,0.8206024-1.9359512
			c0.3553772-0.5990448,0.7801666-1.1462402,1.2758789-1.641571c0.4957123-0.4957123,1.0448151-0.9189758,1.6472931-1.2705536
			c0.6032562-0.3511887,1.2514954-0.6226883,1.9470215-0.8152542c0.6955109-0.1921844,1.416214-0.2882767,2.1635895-0.2882767
			c0.5918121,0,1.1698914,0.0663452,1.7357635,0.1994324c0.5658722,0.1330795,1.1134491,0.3256454,1.6419525,0.5769272
			c0.5292664,0.2516708,1.033371,0.5548172,1.5145874,0.9098282c0.4804688,0.3550034,0.9281311,0.7542496,1.3422394,1.1980972
			l-0.6764526,0.6768417c-0.1929474,0.1921844-0.4125824,0.3454742-0.6604462,0.4602509
			c-0.2478485,0.1147766-0.5269775,0.1719742-0.8373718,0.1719742c-0.4072418,0-0.7801819-0.1182098-1.1203156-0.3550034
			c-0.4293518-0.2886581-0.8899841-0.5140228-1.381134-0.6768417c-0.4918976-0.1624451-1.0120087-0.2440414-1.5588226-0.2440414
			c-0.7176361,0-1.3925781,0.1368866-2.0247955,0.410675c-0.6322327,0.273407-1.1866608,0.645195-1.6640778,1.1145935
			c-0.4774017,0.46978-0.8541412,1.0192642-1.1317444,1.6476746
			C160.1246033,80.9221725,159.9858093,81.5951996,159.9858093,82.3124619z"/>
		<path d="M188.2920532,90.2667465h-2.9170837v-6.5899353h-7.8101501v6.5899353h-2.9071808v-15.897522h2.9071808v6.5232086
			h7.8101501v-6.5232086h2.9170837V90.2667465z"/>
		<g>
			<polygon points="195.6395416,90.2670822 195.2410889,90.2670822 195.2410889,88.0450134 195.2290497,88.0450134 
				194.3322449,90.2670822 194.0890198,90.2670822 193.2182465,88.0450134 193.2054596,88.0450134 193.2054596,90.2670822 
				192.8070221,90.2670822 192.8070221,87.646637 193.4602661,87.646637 194.2139587,89.4954834 194.9920807,87.646637 
				195.6395416,87.646637 			"/>
			<polygon points="192.3276978,88.0450134 191.4689636,88.0450134 191.4689636,90.2670822 191.0701904,90.2670822 
				191.0701904,88.0450134 190.2114563,88.0450134 190.2114563,87.646637 192.3276978,87.646637 			"/>
		</g>
		<path d="M24.1375847,85.4407883c0,0,1.4329929-3.2907715,2.1468201-4.9254837
			c0.7138271-1.6347046,1.432991-3.2762833,2.1574955-4.9258575c0.1632042-0.3771286,0.416399-0.6745529,0.7603474-0.8930511
			c0.3439484-0.2181091,0.7229786-0.3271713,1.1370907-0.3271713h1.8082104l-6.9338856,15.897522h-2.6402435l-6.9338846-15.897522
			h1.7975321c0.19981,0,0.3973331,0.029747,0.5933304,0.0888519s0.3790302,0.1441345,0.549099,0.2550964
			c0.1700668,0.1109695,0.3218307,0.2402344,0.4552917,0.3881836c0.1327,0.1479492,0.2364178,0.3107758,0.3103943,0.4880905
			l4.2936382,9.8402863l0.251627,0.576683L24.1375847,85.4407883z"/>
		<path d="M37.5060806,90.2667465h-2.9170837v-15.897522h2.9170837V90.2667465z"/>
		<path d="M70.1792984,81.7576447v6.6673355c-0.3996201,0.3996277-0.8320312,0.7286987-1.2980042,0.9876175
			c-0.4659729,0.2589111-0.9540558,0.4640656-1.4642639,0.615448c-0.5109634,0.1517639-1.0417557,0.2554779-1.5923767,0.3107758
			c-0.5506287,0.0556717-1.1073532,0.0831223-1.6694107,0.0831223c-1.1241264,0-2.1780891-0.2123947-3.1618881-0.6379395
			c-0.9838028-0.4251709-1.8455811-1.0040131-2.5845757-1.736145c-0.7397537-0.732132-1.3224106-1.5900955-1.7479591-2.5735092
			c-0.4247894-0.9838028-0.6375656-2.0377655-0.6375656-3.1618881c0-0.7470016,0.0960922-1.4661713,0.2882767-2.1578827
			c0.1921844-0.69133,0.4659729-1.3368988,0.8213615-1.9359512c0.3546257-0.5990448,0.7801743-1.1462402,1.2758865-1.641571
			c0.4949532-0.4957123,1.0440483-0.9189758,1.6472931-1.2705536c0.6024818-0.3511887,1.2499619-0.6226883,1.9409103-0.8152542
			c0.6917114-0.1921844,1.4108734-0.2882767,2.1582603-0.2882767c0.5918045,0,1.1721725,0.0663452,1.7418594,0.1994324
			c0.568924,0.1330795,1.1164932,0.3256454,1.6419525,0.5769272c0.5246964,0.2516708,1.0272675,0.5548172,1.5084915,0.9098282
			c0.4804611,0.3550034,0.9281311,0.7542496,1.3422394,1.1980972l-0.6657791,0.6768417
			c-0.2066727,0.2143021-0.4308929,0.3733139-0.6711197,0.4770279c-0.2402267,0.1033401-0.5155411,0.1551971-0.8259354,0.1551971
			c-0.4148712,0-0.7916183-0.1182098-1.131752-0.3550034c-0.4217377-0.2886581-0.8785553-0.5140228-1.3704529-0.6768417
			c-0.4919052-0.1624451-1.0150681-0.2440414-1.5695038-0.2440414c-0.7100143,0-1.3834229,0.1368866-2.0194626,0.410675
			c-0.6360359,0.273407-1.1904716,0.645195-1.6640701,1.1145935c-0.4728355,0.46978-0.8488121,1.0192642-1.1256485,1.6476746
			c-0.2775993,0.6287918-0.4164009,1.3018188-0.4164009,2.0190811c0,0.7321243,0.1441383,1.4143066,0.4331779,2.0469131
			c0.2882767,0.632225,0.6764565,1.1832275,1.1645432,1.6530075c0.4880867,0.4697876,1.0554886,0.8373795,1.7029648,1.1035385
			c0.6467171,0.2665405,1.3254623,0.3996201,2.0354767,0.3996201c0.3477631-0.0072479,0.6993332-0.0369873,1.0539627-0.0888443
			c0.3035278-0.0442352,0.6284103-0.1143951,0.9761734-0.2108688c0.3477631-0.0960922,0.6657791-0.2329865,0.9540558-0.4103012
			v-2.2410049c-0.3103943-0.0072479-0.615448-0.0129623-0.9151611-0.016777
			c-0.2989502-0.0034332-0.5658798-0.0610123-0.7984772-0.1719742c-0.2333679-0.1109619-0.4202118-0.2974319-0.5605392-0.5601578
			c-0.1403275-0.2623444-0.2104874-0.6524353-0.2104874-1.1702652v-0.8877029H70.1792984z"/>
		<path d="M77.793457,90.2667465h-2.9178467v-15.897522h2.9178467V90.2667465z"/>
		<path d="M85.5014114,78.373558v11.8931885h-2.9064026v-15.897522h2.5624542c0.3553925,0,0.667305,0.0518646,0.9372787,0.1551971
			c0.2699738,0.1037216,0.4827499,0.2627258,0.6383286,0.4770279c1.1096344,1.5756073,7.0665817,9.9971161,7.0665817,9.9971161
			V74.3692245h2.9064026v15.897522h-2.6951523L85.5014114,78.373558z"/>
		<path d="M104.4246902,90.2667465h-2.9170761v-15.897522h2.9170761V90.2667465z"/>
		<path d="M116.4402771,74.3692245h-2.62957l-6.9445648,15.897522h1.8082123c0.1998062,0,0.3973312-0.0293579,0.5933304-0.0888443
			c0.1959991-0.0591049,0.3790283-0.1422348,0.5498581-0.249382c0.1700668-0.1071472,0.3210678-0.2348938,0.4545364-0.382843
			c0.133461-0.1479492,0.236412-0.3107758,0.3103867-0.4880905l0.9319458-2.152153h0.0024796l1.6804657-3.8703766h0.0147781
			l1.913353-4.4410172l2.3245163,5.3935471h-1.3201218c-0.9881058,0-1.8819885,0.5864029-2.2754974,1.4927673l-0.6187286,1.4250793
			h5.5009155l0.9433746,2.152153c0.1700745,0.3771286,0.4247894,0.673027,0.7649231,0.8873291
			c0.3401413,0.2146835,0.7176437,0.3218307,1.131752,0.3218307h1.8082123L116.4402771,74.3692245z"/>
		<path d="M45.2135048,90.2647705h-2.9058723V74.3701782h5.967289c0.7685966,0,1.4655151,0.1441116,2.0907631,0.4327164
			c0.6244812,0.2882233,1.1589928,0.67099,1.6027641,1.147934s0.7868958,1.018692,1.0308952,1.6248779
			c0.2439957,0.6065674,0.3659973,1.2310486,0.3659973,1.8745956c0,0.4658813-0.0625267,0.9207153-0.1875763,1.3641052
			c-0.1265717,0.4437714-0.3110962,0.861618-0.5550957,1.25354s-0.5436592,0.7525787-0.8982201,1.0812149
			c-0.35532,0.3293991-0.7617302,0.6084747-1.2199898,0.8376007c0.7762184,1.0575867,1.5486259,2.1056366,2.3179855,3.1445312
			c0.7685928,1.0389023,1.5448151,2.083519,2.3286591,3.1334763h-2.2737617c-0.1547852,0-0.3362579-0.033165-0.5428963-0.099884
			c-0.2073975-0.0663376-0.4239464-0.1719437-0.6488838-0.3160553c-0.2256966-0.1441116-0.4582596-0.330925-0.6992073-0.560051
			c-0.2401848-0.2291336-0.4750328-0.5104904-0.7045441-0.8429413l-2.8944321-3.9043579h-2.1738739V90.2647705z
			 M48.3633728,81.624176c0.2805977,0,0.548996-0.0590973,0.803669-0.1772842
			c0.2561989-0.118187,0.4773216-0.2775421,0.66642-0.4769363c0.1883354-0.1997757,0.3377876-0.430809,0.448349-0.6934891
			c0.1113243-0.2622986,0.1669846-0.5341263,0.1669846-0.8151093c0-0.2886047-0.0556602-0.5638657-0.1669846-0.8265457
			c-0.1105614-0.2622986-0.2600136-0.4933319-0.448349-0.6931076c-0.1890984-0.1997757-0.4102211-0.3583755-0.66642-0.476944
			c-0.254673-0.118187-0.5230713-0.1772766-0.803669-0.1772766h-3.149868v4.3366928H48.3633728z"/>
	</g>
	<g>
		<path d="M108.5507736,16.0780544c-6.4834671,0-12.4455948,3.5530872-15.530983,9.2556343l-3.7990494,7.0216694
			l-0.4416199,0.8163376l-0.4278717,0.7908249v0.0000229L76.8759918,55.1715508L58.1438293,20.1597366h8.3312759
			l6.7088623,12.4732704l3.5202332,6.5449181l3.6342392-6.4823608l7.0281219-12.5358276h6.075119
			c1.4671631-1.6343174,3.1826477-3.0082226,5.071106-4.0816822H84.9756927l-8.1973495,14.6213875l-7.8643417-14.6213875H51.3311386
			L76.8558655,63.785759l14.2082977-26.260437l2.3555984-4.3536263l0.4416199-0.8163376l2.732254-5.0496368
			c0.1488724-0.2751846,0.3065033-0.5438671,0.4723129-0.8057995c1.823494-2.8813667,4.6434326-4.9463234,7.8683243-5.8427544
			c0.8794632-0.2444687,1.7892227-0.4020653,2.7169113-0.4655418c0.3092957-0.0211754,0.6205826-0.031889,0.9334641-0.031889
			h37.1952896l-3.7556,6.9996471h-17.2113876l-1.1516953,2.1639099l-15.9249802,29.9212437h-8.444664l13.966568-25.938839
			l3.2398376-6.0168438H99.7380142c-0.9565887,1.5129776-2.3272934,4.0816822-2.3272934,4.0816822h12.2538757L92.4583893,63.3262215
			h17.7291412l17.0766678-32.0851555h17.2018204l8.1357727-15.1630116H108.5507736z"/>
	</g>
</g>
</svg>
